<svg xmlns="http://www.w3.org/2000/svg" version="1.1" xmlns:xlink="http://www.w3.org/1999/xlink" xmlns:svgjs="http://svgjs.dev/svgjs" width="1000" height="1125" viewBox="0 0 1000 1125"><g transform="matrix(1,0,0,1,1.7053025658242404e-13,0)"><svg viewBox="0 0 320 360" data-background-color="#000000" preserveAspectRatio="xMidYMid meet" height="1125" width="1000" xmlns="http://www.w3.org/2000/svg" xmlns:xlink="http://www.w3.org/1999/xlink"><g id="tight-bounds" transform="matrix(1,0,0,1,0,0)"><svg viewBox="0 0 320 360" height="360" width="320"><g><svg></svg></g><g><svg viewBox="0 0 320 360" height="360" width="320"><g><path xmlns="http://www.w3.org/2000/svg" d="M20.961 227.22l3.726 4.658-1.863-6.056c-0.466-2.795-3.726 0.466-1.863 1.398M25.153 224.425c1.397 2.329 2.795 4.658 2.795 6.987 0 3.261 2.795 4.658 5.123 5.589-3.261-3.726-5.124-13.974-7.918-12.576M204.017 26.929c7.918 0 15.371-0.932 23.756 0.931 20.495 5.124 37.729 15.371 49.374 29.811l32.606 52.169c1.397 13.042 4.192 27.482 3.726 43.319 3.261 0 2.795-4.658 6.521-5.59-3.726 9.316-5.59 20.961-6.521 34.469-2.329-7.453 0-18.632 0.466-24.687-3.261 5.124-5.124 1.397-5.124-0.932 0.466-3.726-1.397-3.261-2.795-4.658-5.124-4.658-8.384-9.782-12.11-17.7 2.329-6.055 2.795-14.905-4.658-19.563-2.329-1.397-5.124-3.726-6.521-7.453-1.863-5.124-5.124-11.179-4.193-19.097 0.466-2.329-6.987 5.124-11.179 1.863-18.166-12.576-36.332-27.016-58.224-39.127-11.645 0-20.029-4.192-24.221-9.316-3.726-4.658-0.932-10.713 4.658-11.179 3.261 0 6.987-0.932 9.782 0.932 0.466-1.863 2.329-4.192 4.657-4.192M157.904 16.215l0.932 0.466c4.658 0.932 6.987 7.453 12.11 5.124 0 3.261 0.466 6.521-0.466 8.85-1.397 3.726-5.59 3.726-8.85 3.726-31.208-1.863-49.374 11.179-68.471 22.358-5.124 3.261-10.713 5.59-14.906 9.782-20.029 18.632-41.921 35.866-47.045 70.335l-4.192 38.195c-0.466 4.192-5.124 8.384-4.192 13.508l3.26 22.824c-3.261-3.261-5.124 0.932-4.192 2.795 0.466 1.397 2.329 6.055 5.124 1.863 3.726 6.987 7.453 20.495 12.576 26.55 15.837 18.632 36.332 35.4 53.101 52.169 4.192-0.932 7.453-0.932 8.384-3.727 1.397 2.795-1.397 5.59-3.726 6.056 7.453 4.658 15.837 8.85 27.016 9.781 14.44 0.932 27.948 3.261 40.524 6.522 6.521-1.863 13.042-2.795 20.029-3.261 2.329 0 3.726-3.726 6.521-4.658l0.466-4.658c2.795 4.192 2.329-1.397 0.466-4.192 3.261 2.795 4.192 5.124 5.589 6.987 0-1.397 3.726-6.521 3.727-0.466l0.931-6.055c1.397-0.932 1.863 5.124 3.261 0.931 1.397-4.192 4.192-0.932 6.987-2.329-0.932 1.863-0.466 5.59 2.794 3.261l3.727-3.261c2.329 5.59 6.055 3.261 7.918 2.329 20.495-13.042 40.99-28.413 60.553-43.784l-0.466 6.055 2.329-7.453c2.329 2.329 4.192 0.466 5.124-0.931 2.795-4.658 6.521-9.316 12.577-13.508-7.453 20.029-16.303 35.866-27.482 48.908l-4.658 5.59c0 3.261-0.932 7.453-4.658 7.918-1.863 0.466-5.59-0.932-8.384 1.863-1.397 1.863 3.261 5.59-0.466 2.795-3.261-2.329-6.521 0-10.248 0.932-2.795 0.932 1.863 3.726 2.795 5.589 0.932 1.863 1.863 3.726 1.398 6.056l-5.124-5.59c-6.055 3.261-9.782 9.316-14.906 13.974-2.329 1.863-1.397 5.124-1.397 7.918-3.261 0-6.987-0.932-8.85 0.932-1.397 1.863-0.932 4.658-0.932 7.453-4.658-0.466-5.124-7.453-9.315-6.056-4.192 0.932-8.85 1.397-12.577 3.727 2.795 5.59-4.658 2.329-3.726 3.26-6.987-4.192-13.042-7.453-20.495-4.658-15.837-5.124-35.4-2.795-49.84-0.931 0-2.329 0.466-4.658-0.466-5.124-0.932 2.329-3.726 1.397-3.26 1.397-8.85-6.055-17.7-9.782-27.016-14.905-8.384 0.932-16.303-3.261-18.632-5.59-6.521-6.055-13.974-2.795-20.029-4.192-13.042-3.261-17.7-16.769-19.098-26.084-0.932-4.658-4.658-6.521-6.055-6.056-6.055-19.563-15.371-37.263-22.824-55.429-1.863-4.658-1.397-9.316-1.397-14.44 2.329 0.932 4.658 0.466 4.192-2.794-2.329-15.371-7.918-27.016-13.974-38.195 3.261-15.837 3.726-34.469 11.179-48.443 6.521-12.576 18.632-19.098 27.016-29.811 2.795-3.726 2.795-8.85 5.59-12.11 9.316-9.316 18.632-19.098 28.879-27.482 4.658-3.726 10.247 0 17.234-1.397 2.329-8.384 11.645-15.837 20.495-13.508 3.726 0.932 11.179-8.85 13.508-9.782 3.726-1.397 1.863 3.726 1.863 6.987 8.85-6.987 20.961-10.713 32.14-14.906" fill="#89939e" fill-rule="nonzero" stroke="none" stroke-width="1" stroke-linecap="butt" stroke-linejoin="miter" stroke-miterlimit="10" stroke-dasharray="" stroke-dashoffset="0" font-family="none" font-weight="none" font-size="none" text-anchor="none" style="mix-blend-mode: normal" data-fill-palette-color="tertiary"></path></g><g transform="matrix(1,0,0,1,64,153.3366501971831)"><svg viewBox="0 0 192 53.326699605633806" height="53.326699605633806" width="192"><g><svg viewBox="0 0 192 53.326699605633806" height="53.326699605633806" width="192"><g><svg viewBox="0 0 192 53.326699605633806" height="53.326699605633806" width="192"><g><svg viewBox="0 0 192 53.326699605633806" height="53.326699605633806" width="192"><g id="textblocktransform"><svg viewBox="0 0 192 53.326699605633806" height="53.326699605633806" width="192" id="textblock"><g><svg viewBox="0 0 192 34.901408450704224" height="34.901408450704224" width="192"><g transform="matrix(1,0,0,1,0,0)"><svg width="192" viewBox="2.5 -36.25 227.19000244140625 41.29999923706055" height="34.901408450704224" data-palette-color="#89939e"><path d="M22.75-35.6Q24-35.1 24-34.2L24-34.2Q24-33.3 22.75-31.9L22.75-31.9Q22.2-31.95 21.15-31.95L21.15-31.95Q18.85-31.95 16.75-31.33 14.65-30.7 12.4-29.4L12.4-29.4Q11.35-28.75 10.6-27.75L10.6-27.75Q10.05-27.15 10.05-26.35L10.05-26.35Q10.05-25 11.55-23.75L11.55-23.75Q13-22.25 16.3-18.3L16.3-18.3 17.45-17.1Q19.9-14.45 21.33-12.6 22.75-10.75 23.75-8.35L23.75-8.35Q24.15-7.3 24.15-6.45L24.15-6.45Q24.15-4.3 22.5-2.5L22.5-2.5Q20.6-0.4 18.1 0.58 15.6 1.55 12.45 1.8L12.45 1.8Q12.05 1.85 11.5 1.9 10.95 1.95 10.25 1.95L10.25 1.95Q9.8 1.95 8.9 1.85L8.9 1.85Q7.8 1.9 6.6 1.48 5.4 1.05 4.4 0.25L4.4 0.25Q2.5-1.35 2.5-3.3L2.5-3.3Q2.5-4.95 3.9-6.65L3.9-6.65Q4.6-6.55 4.73-6.23 4.85-5.9 4.78-5.5 4.7-5.1 4.7-4.85L4.7-4.85Q4.7-4.7 4.8-4.4L4.8-4.4Q6.75-3.5 9.45-3.5L9.45-3.5Q12.45-3.5 15.13-4.53 17.8-5.55 18.4-7.05L18.4-7.05Q18.75-8.05 16.7-10.58 14.65-13.1 12.1-15.5L12.1-15.5Q9.7-17.65 7.75-19.75L7.75-19.75Q6.65-20.95 6.03-22.53 5.4-24.1 5.4-25.8L5.4-25.8Q5.4-28.1 6.58-30.15 7.75-32.2 10.1-33.5L10.1-33.5Q14.6-36.05 19.3-36.05L19.3-36.05Q19.95-36.05 21.15-35.95L21.15-35.95Q22.25-35.85 22.75-35.6L22.75-35.6ZM38.4-17.25Q38.55-19.3 38.7-21.03 38.85-22.75 39-24.15L39-24.15 39.4-28.15Q35.5-27.55 31.1-25.85L31.1-25.85Q30.05-25.45 29.15-25.45L29.15-25.45Q27.8-25.45 26.67-26.2 25.55-26.95 24.9-28.4L24.9-28.4Q25.2-29.5 26.02-30.05 26.85-30.6 28.3-31.15L28.3-31.15Q35.25-33.7 44.2-33.65L44.2-33.65Q48.45-33.65 53.07-33.3 57.7-32.95 58.5-32.9L58.5-32.9 62-32.65Q62.2-32.65 62.67-32.65 63.15-32.65 63.45-32.43 63.75-32.2 63.75-31.7L63.75-31.7Q63.75-30.45 61.95-30.25L61.95-30.25Q57.45-29.75 55.55-29.55L55.55-29.55Q53.6-29.45 52.6-29.35L52.6-29.35Q48.7-29.1 46.75-28.95L46.75-28.95Q45.55-28.85 45.1-28.68 44.65-28.5 44.52-28.08 44.4-27.65 44.3-26.3L44.3-26.3Q44.05-23.15 43.25-15.45L43.25-15.45Q42.45-8.5 42.25-5.85L42.25-5.85Q42.2-4.4 41.6-2.35L41.6-2.35Q41.2-1.05 40.95-0.63 40.7-0.2 40.22-0.1 39.75 0 38.45-0.05L38.45-0.05Q37.5-0.05 36.97-0.48 36.45-0.9 36.45-1.65L36.45-1.65Q36.45-1.8 36.55-2.3L36.55-2.3Q37.65-6.65 38.4-17.25L38.4-17.25ZM90.2-26.8Q90.5-24.65 90.8-20.55L90.8-20.55 90.9-17.95Q90.9-10.7 92.8-5L92.8-5Q93.05-4.2 93.05-2.95L93.05-2.95Q93.05-2.25 92.95-1.05L92.95-1.05Q92.9-0.25 92.35 0.23 91.8 0.7 90.95 0.7L90.95 0.7Q90.85 0.7 90.4 0.6L90.4 0.6Q89.15 0.3 88.5-0.53 87.85-1.35 87.85-2.55L87.85-2.55Q87.85-2.95 87.9-3.15L87.9-3.15Q87.9-3.45 87.9-4L87.9-4Q87.9-4.9 87.8-5.65L87.8-5.65Q87.4-7.6 86.55-10.85L86.55-10.85Q86.25-12.2 85.3-12.2L85.3-12.2Q84.95-12.2 84.5-12.05L84.5-12.05Q82.95-11.6 81.77-11.2 80.6-10.8 79.7-10.55L79.7-10.55 77.3-9.85Q75.25-9.25 73.5-8.9L73.5-8.9Q71.65-8.5 70.8-6.85L70.8-6.85Q70-5.35 68.5-2.8L68.5-2.8Q67.55-1.1 66-1.1L66-1.1Q65.25-1.1 64.52-1.48 63.8-1.85 63.3-2.45L63.3-2.45Q62.55-3.3 62.55-4.1L62.55-4.1Q62.55-4.65 62.85-5.25L62.85-5.25 66.3-12.25Q72-23.85 73.1-26.15L73.1-26.15Q76.25-32.25 81.65-34.55L81.65-34.55Q82.8-35.1 84-35.1L84-35.1Q85.5-35.1 86.77-34.33 88.05-33.55 88.75-32.15L88.75-32.15Q89.75-30.1 90.2-26.8L90.2-26.8ZM74.05-14.15Q80.9-15.35 85.7-16.1L85.7-16.1Q85.6-20.9 85.42-23.68 85.25-26.45 84.7-29.25L84.7-29.25Q82.05-28.95 80.7-26.65L80.7-26.65Q78.35-22.95 76.2-19L76.2-19Q75.85-18.35 74.9-16.1L74.9-16.1 74.05-14.15ZM128.69-4.8Q128.84-4.3 128.84-3.85L128.84-3.85Q128.84-3.05 128.37-2.58 127.89-2.1 127.09-2.1L127.09-2.1Q126.79-2.1 126.59-2.15L126.59-2.15Q124.34-2.65 123.04-3.25L123.04-3.25Q122.04-3.7 119.34-5.5L119.34-5.5Q117.29-6.85 115.94-7.6L115.94-7.6Q114.19-8.55 112.19-8.9L112.19-8.9Q111.29-9.05 107.94-9.4L107.94-9.4Q106.44-9.5 105.74-9.6L105.74-9.6 104.84-2.2 104.89-1.4Q104.89 0.4 104.47 1 104.04 1.6 102.74 1.6L102.74 1.6Q101.39 1.6 100.39 0.75 99.39-0.1 99.39-1.35L99.39-1.35Q99.39-5.15 99.79-8.1L99.79-8.1Q101.19-17.15 106.24-26.9L106.24-26.9Q109.09-32.35 114.99-35.3L114.99-35.3Q116.89-36.25 118.84-36.25L118.84-36.25Q120.84-36.25 122.57-35.23 124.29-34.2 125.44-32.25L125.44-32.25Q126.49-30.5 126.49-28.85L126.49-28.85Q126.49-26.55 124.69-24.2L124.69-24.2Q122.54-21.4 118.59-16.25L118.59-16.25 115.34-12.05Q115.39-12.05 115.47-11.93 115.54-11.8 115.64-11.7L115.64-11.7 116.74-11.1Q120.89-8.85 122.84-7.55L122.84-7.55Q124.74-6.4 126.89-6.4L126.89-6.4Q127.54-6.4 127.89-6.45L127.89-6.45Q128.04-6.2 128.29-5.7 128.54-5.2 128.69-4.8L128.69-4.8ZM110.19-14.7Q112.24-17 114.32-19.5 116.39-22 117.99-24.2L117.99-24.2Q118.64-25.1 119.09-26.13 119.54-27.15 119.92-28.2 120.29-29.25 120.44-29.7L120.44-29.7Q120.49-29.85 120.49-30.2L120.49-30.2Q120.49-30.6 120.39-31.2 120.29-31.8 120.24-32.05L120.24-32.05Q116.59-30.95 113.59-27.55 110.59-24.15 108.87-20 107.14-15.85 107.09-12.85L107.09-12.85Q108.09-12.75 108.67-13.2 109.24-13.65 110.19-14.7L110.19-14.7ZM155.19-23.25Q154.94-22.75 153.59-20.5L153.59-20.5Q154.84-19.75 155.34-19.55L155.34-19.55Q157.99-18.55 159.32-16.53 160.64-14.5 160.64-12.05L160.64-12.05Q160.64-9.65 159.39-7.3L159.39-7.3Q156.29-1.55 149.39 1.9L149.39 1.9Q147.69 2.75 146.04 2.75L146.04 2.75Q143.64 2.75 141.59 1.05L141.59 1.05Q140.79 0.4 139.69-0.4L139.69-0.4Q139.59-0.1 139.47 0.33 139.34 0.75 139.19 0.95L139.19 0.95Q138.59 1.85 137.69 1.85L137.69 1.85Q136.89 1.85 136.24 1.2L136.24 1.2Q134.44-0.45 134.44-2.55L134.44-2.55Q134.44-4.15 134.39-5.35 134.34-6.55 134.29-7.35L134.29-7.35Q134.24-8.35 134.19-9.85 134.14-11.35 134.14-13.35L134.14-13.35Q134.14-17.15 134.54-20.15L134.54-20.15Q135.09-24.55 136.64-28.4L136.64-28.4Q137.84-31.3 140.22-32.95 142.59-34.6 145.84-34.9L145.84-34.9Q147.34-35 148.14-35L148.14-35Q151.84-35 154.34-33.4L154.34-33.4Q155.64-32.6 156.37-31.3 157.09-30 157.09-28.5L157.09-28.5Q157.09-27.25 156.54-26L156.54-26 156.04-25Q155.69-24.2 155.19-23.25L155.19-23.25ZM151.24-27.4Q151.49-28.05 151.69-29.55L151.69-29.55 151.84-30.65Q150.34-31.3 148.99-31.3L148.99-31.3Q147.84-31.3 146.84-30.95L146.84-30.95Q144.69-30.25 143.27-28.83 141.84-27.4 141.02-25.7 140.19-24 139.39-21.5L139.39-21.5Q138.79-19.55 138.79-17.15L138.79-17.15Q138.79-15.85 138.99-13.35L138.99-13.35Q139.09-12.6 139.19-10.9L139.19-10.9Q139.24-9.55 139.74-5.35L139.74-5.35 139.94-3.7Q140.24-3.6 140.94-3.5L140.94-3.5Q141.89-3.4 142.39-3.1L142.39-3.1Q142.84-2.85 143.29-2.27 143.74-1.7 143.99-1.4L143.99-1.4Q146.99-2 149.12-3.85 151.24-5.7 153.29-8.65L153.29-8.65Q154.84-11.05 155.24-12.95L155.24-12.95Q155.39-13.7 155.39-14.3L155.39-14.3Q155.39-15.65 154.67-16.35 153.94-17.05 152.69-17.05L152.69-17.05Q151.94-17.05 151.29-16.85L151.29-16.85Q149.04-16.2 146.69-14L146.69-14Q145.49-12.95 144.29-12.95L144.29-12.95Q143.54-12.95 142.74-13.4L142.74-13.4Q141.79-13.95 141.14-14.6 140.49-15.25 140.04-16.3L140.04-16.3 141.19-17.1Q142.99-18.4 143.94-18.95L143.94-18.95Q148.79-21.55 151.24-27.4L151.24-27.4ZM168.64-25.15Q170.59-28.4 174.69-30.85L174.69-30.85Q177.94-32.8 182.24-32.8L182.24-32.8Q185.29-32.8 188.14-31.78 190.99-30.75 192.84-28.9L192.84-28.9Q193.49-28.25 194.24-27.65L194.24-27.65Q195.39-26.65 195.59-26.4L195.59-26.4Q198.09-23.75 198.09-20.55L198.09-20.55Q198.09-18.05 196.49-15.45L196.49-15.45Q194.39-12 192.14-9.4 189.89-6.8 187.09-4.95L187.09-4.95Q182.34-1.8 177.99-1.8L177.99-1.8Q176.69-1.8 175.39-2.1L175.39-2.1Q171.04-3.05 168.34-6.18 165.64-9.3 165.64-13.3L165.64-13.3Q165.64-16.35 167.34-19.4L167.34-19.4Q167.44-19.65 167.76-19.9 168.09-20.15 168.29-20.3L168.29-20.3 169.44-19.75 170.54-19.2Q172.09-18.35 172.56-17.8 173.04-17.25 173.04-16.25L173.04-16.25Q173.04-15.55 172.89-14.35L172.89-14.35Q172.84-13.9 172.84-13.05L172.84-13.05Q172.84-11.2 173.29-8.6L173.29-8.6Q173.39-7.85 173.91-7.45 174.44-7.05 175.24-7.05L175.24-7.05Q175.64-7.05 175.89-7.1L175.89-7.1Q178.24-7.55 179.91-8.15 181.59-8.75 182.94-9.95L182.94-9.95Q185.44-12.1 187.29-14.1 189.14-16.1 190.54-18.4L190.54-18.4Q191.49-20 191.49-21.5L191.49-21.5Q191.49-22.75 190.94-23.95 190.39-25.15 189.34-26.65L189.34-26.65Q187.59-29.05 184.79-29.05L184.79-29.05Q183.79-29.05 182.74-28.75L182.74-28.75Q182.39-28.65 179.54-27.7L179.54-27.7Q179.24-27.6 178.91-27.5 178.59-27.4 178.24-27.3L178.24-27.3 172.54-25.65Q171.44-25.3 169.14-24.7L169.14-24.7 168.64-25.15ZM203.44-23.65Q202.64-25.75 202.36-26.65 202.09-27.55 202.09-28.45L202.09-28.45Q202.09-29.1 202.26-30.15 202.44-31.2 202.74-32.5L202.74-32.5 203.69-32.55Q204.04-32.55 204.29-32.4L204.29-32.4 205.14-31.75Q206.64-30.5 207.39-29.65 208.14-28.8 208.44-27.3L208.44-27.3Q209.09-24.25 209.96-21.9 210.84-19.55 212.49-17.65L212.49-17.65Q213.69-16.25 214.61-15.58 215.54-14.9 217.09-14.95L217.09-14.95Q217.84-16.45 218.19-17.25L218.19-17.25 219.54-20.55Q223.24-29.55 224.19-31.7L224.19-31.7Q224.59-32.65 225.64-34.1L225.64-34.1Q225.89-34.4 226.29-35L226.29-35Q227.94-34.35 228.81-33.08 229.69-31.8 229.69-30.15L229.69-30.15Q229.69-29.05 229.34-28.05L229.34-28.05Q228.49-25.6 226.54-21.55L226.54-21.55Q226.19-20.8 225.86-20.2 225.54-19.6 225.29-19.1L225.29-19.1Q224.19-17 223.99-16.6L223.99-16.6 222.64-13.6Q221.09-9.9 219.79-7.75L219.79-7.75 219.09-6.65Q216.59-2.55 214.71 0.08 212.84 2.7 210.24 5.05L210.24 5.05Q210.14 4.7 209.91 4.23 209.69 3.75 209.74 3.55L209.74 3.55Q211.34-0.5 214.64-8.6L214.64-8.6Q214.89-9.25 215.59-11.4L215.59-11.4Q206.54-15.2 203.44-23.65L203.44-23.65Z" opacity="1" transform="matrix(1,0,0,1,0,0)" fill="#89939e" class="undefined-text-0" data-fill-palette-color="primary" id="text-0"></path></svg></g></svg></g><g transform="matrix(1,0,0,1,0,39.99436157746479)"><svg viewBox="0 0 192 13.332338028169014" height="13.332338028169014" width="192"><g transform="matrix(1,0,0,1,0,0)"><svg width="192" viewBox="0 -37.5 580.1199951171875 40.279998779296875" height="13.332338028169014" data-palette-color="#dedede"><path d="M11.38-35.4L11.38-35.4 15.09-35.16Q16.46-29.1 20.7-18.04 24.95-6.98 26.32-1.51L26.32-1.51Q26.32-0.1 25.83 0.61 25.34 1.32 24.61 1.32L24.61 1.32Q23.97 1.32 23.41 0.81 22.85 0.29 22.66-0.63L22.66-0.63Q22.22-2.78 19.82-9.23L19.82-9.23Q9.77-10.5 7.18-10.79L7.18-10.79Q6.54-9.03 5.62-5.08 4.69-1.12 4.15 0.39L4.15 0.39Q3.42 1.27 2.49 1.27L2.49 1.27Q1.46 1.27 0.73 0.37 0-0.54 0-1.86L0-1.86Q1.56-7.57 5.66-18.65 9.77-29.74 11.38-35.4ZM13.09-30.47L13.09-30.47Q12.11-24.56 7.67-13.13L7.67-13.13 13.13-13.13Q16.85-13.13 19.34-12.89L19.34-12.89Q14.31-23.68 13.09-30.47ZM78.36 0L78.36 0 74.65 0.34Q71.96-16.5 68.84-28.52L68.84-28.52Q67.23-24.71 65.3-17.8 63.37-10.89 62.64-8.84L62.64-8.84Q62.54-8.84 62.32-8.81 62.1-8.79 61.95-8.79L61.95-8.79Q61.27-8.79 59.71-8.94 58.14-9.08 57.7-9.08L57.7-9.08Q57.66-10.5 55.21-18.53 52.77-26.56 52.28-28.81L52.28-28.81Q51.41-20.9 45.45 0L45.45 0 42.42-0.29Q43.1-5.62 45.79-17.04 48.48-28.47 48.96-34.72L48.96-34.72Q49.84-34.81 50.38-34.81L50.38-34.81Q50.87-34.81 53.99-34.42L53.99-34.42Q54.68-34.33 55.97-30 57.26-25.68 58.58-20.51 59.9-15.33 60.24-14.4L60.24-14.4Q61.61-17.77 63.54-25.34 65.47-32.91 66.25-34.96L66.25-34.96Q67.03-34.91 71.18-34.52L71.18-34.52Q72.45-29.59 73.65-23.88 74.84-18.16 76.23-10.89 77.63-3.61 78.36 0ZM96.56-16.36L96.56-16.36Q96.56-18.02 96.56-18.87 96.56-19.73 96.63-21.48 96.71-23.24 96.83-24.27 96.95-25.29 97.2-26.93 97.44-28.56 97.83-29.57 98.22-30.57 98.73-31.84 99.25-33.11 100.03-33.89 100.81-34.67 101.74-35.38 102.66-36.08 103.93-36.43 105.2-36.77 106.72-36.77L106.72-36.77Q109.74-36.77 111.99-35.57 114.24-34.38 115.51-32.57 116.78-30.76 117.53-28.13 118.29-25.49 118.51-23.1 118.73-20.7 118.73-17.82L118.73-17.82Q118.73-15.87 118.66-14.31 118.58-12.74 118.36-10.77 118.14-8.79 117.73-7.28 117.31-5.76 116.58-4.22 115.85-2.69 114.85-1.68 113.85-0.68 112.33-0.05 110.82 0.59 108.96 0.59L108.96 0.59Q105.94 0.59 103.76-0.15 101.59-0.88 100.2-2.2 98.81-3.52 98-5.66 97.2-7.81 96.88-10.35 96.56-12.89 96.56-16.36ZM115.21-15.97L115.21-15.97Q115.21-18.36 114.85-20.95 114.48-23.54 113.63-26.51 112.77-29.49 110.92-31.37 109.06-33.25 106.47-33.25L106.47-33.25Q104.52-33.25 103.03-30.64 101.54-28.03 100.91-24.78 100.27-21.53 100.27-18.65L100.27-18.65Q100.27-16.65 100.3-15.6 100.32-14.55 100.47-12.62 100.61-10.69 100.88-9.57 101.15-8.45 101.74-6.98 102.32-5.52 103.13-4.71 103.93-3.91 105.23-3.3 106.52-2.69 108.13-2.64L108.13-2.64Q111.7-2.83 113.45-6.64 115.21-10.45 115.21-15.97ZM138.83-1.37L138.83-1.37 139.47-35.16 142.11-35.16 158.07-4.83 158.07-8.69Q158.07-23.44 158.61-35.21L158.61-35.21 161.39-34.67Q161.93-24.07 162.27 0.24L162.27 0.24Q161.25 0.68 160.12 0.68L160.12 0.68Q158.46 0.68 156.66-0.29L156.66-0.29Q153.68-4.88 149.26-13.72 144.84-22.56 142.99-25.83L142.99-25.83Q143.03-22.51 143.06-13.72 143.08-4.93 143.23-0.39L143.23-0.39Q142.79 1.12 141.52 1.12L141.52 1.12Q140.64 1.12 139.84 0.39 139.03-0.34 138.83-1.37ZM203.13-10.35L198.39-11.23 197.86-13.43Q198.83-13.57 202.45-13.89 206.06-14.21 206.99-14.4L206.99-14.4 206.99 1.12 203.18 1.9Q203.13 1.42 203.13-0.42 203.13-2.25 203.08-2.78L203.08-2.78Q203.08-2.69 202.74-2.22 202.4-1.76 201.67-1.07 200.93-0.39 199.96 0.24 198.98 0.88 197.47 1.32 195.95 1.76 194.29 1.76L194.29 1.76Q182.43 1.76 182.43-16.7L182.43-16.7Q182.43-19.87 182.92-22.88 183.4-25.88 184.58-28.91 185.75-31.93 188.12-33.79 190.48-35.64 193.76-35.64L193.76-35.64Q196.59-35.64 199.61-34.67 202.64-33.69 204.79-32.23L204.79-32.23 202.84-29.98Q199.03-32.81 195.32-32.81L195.32-32.81Q192.88-32.81 191.12-31.64 189.36-30.47 188.46-28.81 187.55-27.15 187.04-24.61 186.53-22.07 186.41-20.21 186.28-18.36 186.28-15.87L186.28-15.87Q186.28-9.91 188.48-6.13 190.68-2.34 194.19-2.34L194.19-2.34Q195.71-2.34 197.15-2.83 198.59-3.32 199.61-4 200.64-4.69 201.47-5.42 202.3-6.15 202.72-6.64 203.13-7.13 203.13-7.23L203.13-7.23 203.13-10.35ZM255.7-32.76L255.7-32.76 255.21-34.96 273.86-36.04Q275.08-35.99 275.91-35.16 276.74-34.33 276.74-33.35L276.74-33.35Q276.74-32.71 276.25-32.23 275.76-31.74 274.79-31.64L274.79-31.64 266.59-32.08Q267.81-14.84 268.39-0.73L268.39-0.73Q267.95 0.73 266.73 0.73L266.73 0.73Q265.85 0.73 265.02 0.02 264.19-0.68 264-1.71L264-1.71Q264.1-4.35 264.1-9.72L264.1-9.72Q264.1-11.72 264.07-15.72 264.05-19.73 264.05-21.73L264.05-21.73Q264.05-27.54 264.24-32.23L264.24-32.23Q258.72-32.62 255.7-32.76ZM309.93-35.11L309.93-35.11 312.77-35.69Q313.64-28.81 313.86-16.58 314.08-4.35 314.33-0.39L314.33-0.39Q313.89 1.12 312.62 1.12L312.62 1.12Q311.74 1.12 310.93 0.39 310.13-0.34 309.93-1.37L309.93-1.37Q309.98-3.13 309.98-7.23L309.98-7.23 309.98-16.85Q308.91-16.8 306.98-16.63 305.05-16.46 303.46-16.36 301.88-16.26 300.46-16.26L300.46-16.26Q299.19-16.26 298.61-16.31L298.61-16.31Q298.7-13.33 298.95-7.89 299.19-2.44 299.29-0.39L299.29-0.39Q298.85 1.12 297.58 1.12L297.58 1.12Q296.7 1.12 295.9 0.39 295.09-0.34 294.89-1.37L294.89-1.37Q295.04-5.57 295.16-17.68 295.29-29.79 295.63-35.69L295.63-35.69 297.82-35.21Q297.82-35.06 297.85-34.74 297.87-34.42 297.87-34.23L297.87-34.23Q298.51-22.22 298.61-19.19L298.61-19.19Q300.27-19.34 302.15-19.51 304.03-19.68 306.3-19.9 308.57-20.12 309.84-20.21L309.84-20.21Q309.88-20.21 309.88-20.7 309.88-21.19 309.91-24.66 309.93-28.13 309.93-35.11ZM353.09-2.2L353.09-2.2 353.58 0Q351.67 0 346.67 0.17 341.66 0.34 339.42 0.34L339.42 0.34Q335.8 0.34 334.48 0L334.48 0Q334.97-5.37 335.07-17.97 335.17-30.57 335.7-35.55L335.7-35.55Q337.36-35.4 344.52-35.3 351.67-35.21 353.87-34.86L353.87-34.86 354.41-32.67Q352.21-32.28 345.62-31.74 339.02-31.2 338.68-31.15L338.68-31.15Q338.73-30.03 338.9-26.56 339.07-23.1 339.12-20.85L339.12-20.85Q340.78-20.65 345.18-20.29 349.57-19.92 350.74-19.82L350.74-19.82 351.23-17.58Q340.93-16.65 339.17-16.6L339.17-16.6Q339.17-14.45 339.1-10.08 339.02-5.71 339.02-3.66L339.02-3.66Q350.21-2.64 353.09-2.2ZM402.97-2.78L402.97-2.78 403.65-5.52Q407.9-3.22 412-3.22L412-3.22Q414.93-3.22 417.01-4.42 419.08-5.62 419.08-8.3L419.08-8.3Q419.08-10.69 417.32-12.67 415.57-14.65 413.08-16.16 410.58-17.68 408.09-19.26 405.6-20.85 403.85-23.17 402.09-25.49 402.09-28.32L402.09-28.32Q402.09-31.79 404.58-34.64 407.07-37.5 410.58-37.5L410.58-37.5Q413.27-37.5 416.57-36.43 419.86-35.35 422.11-34.28L422.11-34.28 421.52-32.32Q415.96-34.23 412.15-34.23L412.15-34.23Q409.8-34.23 408.14-32.71 406.48-31.2 406.48-28.81L406.48-28.81Q406.48-27 407.41-25.54 408.34-24.07 409.83-23 411.32-21.92 413.15-20.9 414.98-19.87 416.79-18.7 418.59-17.53 420.08-16.16 421.57-14.79 422.5-12.72 423.43-10.64 423.43-8.06L423.43-8.06Q423.43-4.39 421.08-2.08 418.74 0.24 414.98 0.24L414.98 0.24Q411.76 0.24 408.12-0.66 404.48-1.56 402.97-2.78ZM440.55-32.76L440.55-32.76 440.07-34.96 458.72-36.04Q459.94-35.99 460.77-35.16 461.6-34.33 461.6-33.35L461.6-33.35Q461.6-32.71 461.11-32.23 460.62-31.74 459.65-31.64L459.65-31.64 451.44-32.08Q452.66-14.84 453.25-0.73L453.25-0.73Q452.81 0.73 451.59 0.73L451.59 0.73Q450.71 0.73 449.88 0.02 449.05-0.68 448.86-1.71L448.86-1.71Q448.95-4.35 448.95-9.72L448.95-9.72Q448.95-11.72 448.93-15.72 448.9-19.73 448.9-21.73L448.9-21.73Q448.9-27.54 449.1-32.23L449.1-32.23Q443.58-32.62 440.55-32.76ZM485.17-35.4L485.17-35.4 488.88-35.16Q490.25-29.1 494.5-18.04 498.75-6.98 500.11-1.51L500.11-1.51Q500.11-0.1 499.63 0.61 499.14 1.32 498.4 1.32L498.4 1.32Q497.77 1.32 497.21 0.81 496.65 0.29 496.45-0.63L496.45-0.63Q496.01-2.78 493.62-9.23L493.62-9.23Q483.56-10.5 480.97-10.79L480.97-10.79Q480.34-9.03 479.41-5.08 478.48-1.12 477.95 0.39L477.95 0.39Q477.21 1.27 476.29 1.27L476.29 1.27Q475.26 1.27 474.53 0.37 473.8-0.54 473.8-1.86L473.8-1.86Q475.36-7.57 479.46-18.65 483.56-29.74 485.17-35.4ZM486.88-30.47L486.88-30.47Q485.9-24.56 481.46-13.13L481.46-13.13 486.93-13.13Q490.64-13.13 493.13-12.89L493.13-12.89Q488.1-23.68 486.88-30.47ZM540.87 0.78L540.87 0.78 541.66 2.78Q539.46 2.73 537.07 1.37 534.67 0 532.6-2.08 530.52-4.15 528.89-6.27 527.25-8.4 526.08-10.45L526.08-10.45 522.22-10.89Q522.32-7.32 522.61 0.2L522.61 0.2Q522.17 1.71 520.9 1.71L520.9 1.71Q520.02 1.71 519.22 1 518.41 0.29 518.22-0.73L518.22-0.73Q518.36-4.83 518.54-16.7 518.71-28.56 519-35.06L519-35.06 521.2-35.64Q521.2-34.08 521.25-33.89L521.25-33.89Q524.03-35.74 529.06-35.74L529.06-35.74Q534.48-35.74 537.16-32.35 539.85-28.96 539.85-22.85L539.85-22.85Q539.85-20.61 539.31-18.53 538.77-16.46 537.73-14.65 536.68-12.84 534.82-11.67 532.96-10.5 530.57-10.3L530.57-10.3Q532.28-6.74 535.16-3.37 538.04 0 540.87 0.78ZM521.69-30.62L521.69-30.62 522.08-15.38Q524.76-13.92 528.28-13.92L528.28-13.92Q531.65-13.92 533.99-16.46 536.33-18.99 536.33-22.66L536.33-22.66Q536.33-26.61 533.89-29.79 531.45-32.96 527.79-32.96L527.79-32.96Q524.81-32.96 521.69-30.62ZM559.66-2.78L559.66-2.78 560.35-5.52Q564.59-3.22 568.7-3.22L568.7-3.22Q571.63-3.22 573.7-4.42 575.78-5.62 575.78-8.3L575.78-8.3Q575.78-10.69 574.02-12.67 572.26-14.65 569.77-16.16 567.28-17.68 564.79-19.26 562.3-20.85 560.54-23.17 558.78-25.49 558.78-28.32L558.78-28.32Q558.78-31.79 561.27-34.64 563.76-37.5 567.28-37.5L567.28-37.5Q569.97-37.5 573.26-36.43 576.56-35.35 578.8-34.28L578.8-34.28 578.22-32.32Q572.65-34.23 568.84-34.23L568.84-34.23Q566.5-34.23 564.84-32.71 563.18-31.2 563.18-28.81L563.18-28.81Q563.18-27 564.11-25.54 565.03-24.07 566.52-23 568.01-21.92 569.84-20.9 571.67-19.87 573.48-18.7 575.29-17.53 576.78-16.16 578.27-14.79 579.19-12.72 580.12-10.64 580.12-8.06L580.12-8.06Q580.12-4.39 577.78-2.08 575.43 0.24 571.67 0.24L571.67 0.24Q568.45 0.24 564.81-0.66 561.18-1.56 559.66-2.78Z" opacity="1" transform="matrix(1,0,0,1,0,0)" fill="#dedede" class="undefined-text-1" data-fill-palette-color="secondary" id="text-1"></path></svg></g></svg></g></svg></g></svg></g><g></g></svg></g></svg></g></svg></g></svg></g><defs></defs></svg><rect width="320" height="360" fill="none" stroke="none" visibility="hidden"></rect></g></svg></g></svg>