<svg xmlns="http://www.w3.org/2000/svg" version="1.1" xmlns:xlink="http://www.w3.org/1999/xlink" xmlns:svgjs="http://svgjs.dev/svgjs" width="1000" height="1000" viewBox="0 0 1000 1000"><rect width="1000" height="1000" fill="#000000"></rect><g transform="matrix(0.7,0,0,0.7,149.57605563665675,383.6273908229242)"><svg viewBox="0 0 396 132" data-background-color="#000000" preserveAspectRatio="xMidYMid meet" height="333" width="1000" xmlns="http://www.w3.org/2000/svg" xmlns:xlink="http://www.w3.org/1999/xlink"><g id="tight-bounds" transform="matrix(1,0,0,1,0.24008861730862918,-0.10029895357718033)"><svg viewBox="0 0 395.52 132.2007519292357" height="132.2007519292357" width="395.52"><g><svg viewBox="0 0 395.52 132.2007519292357" height="132.2007519292357" width="395.52"><g><svg viewBox="0 0 395.52 132.2007519292357" height="132.2007519292357" width="395.52"><g id="textblocktransform"><svg viewBox="0 0 395.52 132.2007519292357" height="132.2007519292357" width="395.52" id="textblock"><g><svg viewBox="0 0 395.52 102.10007372734306" height="102.10007372734306" width="395.52"><path d="M394.594 21.899C392.735 11.301 387.435 8.354 387.435 8.354 371.165-2.562 350.86-0.209 332.619 1.36 300.414 1.423 268.339 3.755 236.208 5.005 168.767 5.196 100.749 2.059 33.643 9.796 27.339 12.17-6.54 10.262 1.121 23.255 3.129 28.66 10.456 34.658 10.232 39.618 11.236 40.487 12.631 38.495 13.226 39.745 15.309 43.116 18.711 41.526 21.501 43.518 17.614 48.839 20.403 53.268 23.062 57.91 18.377 59.119 12.371 58.546 9.675 62.552 9.396 65.456 7.89 64.905 6.235 64.778 5.026 64.693 2.59 65.011 2.999 65.922 4.394 69.038-1.594 70.84 2.162 73.892-0.422 77.199 3.948 80.06 3.353 83.642 3.278 84.363 3.687 84.978 4.338 85.147 7.22 86.059 3.018 87.839 3.464 89.768 33.029 102.952 65.104 93.837 95.394 99.899 103.259 95.66 97.346 101.404 100.489 100.514 102.943 99.476 104.728 103.778 107.499 101.341 107.927 100.641 107.276 98.988 108.8 99.306 109.6 99.476 110.307 99.433 110.418 98.458 110.586 96.996 109.117 97.907 108.726 97.144 112.947 93.286 111.906 102.464 115.866 102.083 115.68 100.959 114.528 99.348 116.889 99.56 119.232 97.949 119.306 96.614 121.389 100.239 121.463 101.023 121.835 101.574 122.43 101.955 128.938 98.013 135.409 103.354 142.233 101.574 146.417 99.624 150.433 102.634 154.672 101.892 156.16 101.298 157.666 100.239 159.098 102.019 176.632 102.401 195.319 100.811 211.943 102.083 256.364 99.709 303.835 103.058 350.674 99.921 361.719 98.712 373.192 96.996 383.958 95.618 383.958 95.618 392.679 91.845 392.679 74.888S394.538 60.051 394.817 46.549C395.096 33.048 396.398 32.496 394.538 21.899Z" opacity="1" fill="#89939e" data-fill-palette-color="tertiary"></path><g transform="matrix(1,0,0,1,55.76832,26.068561146666667)"><svg width="283.98335999999995" viewBox="0.186956524848938 -36.35769271850586 210.0430450439453 36.95769119262695" height="49.962951434009724" data-palette-color="#000000"><path d="M0.5-2.05L0.5-2.05Q-0.1-3.4 0.45-4.7L0.45-4.7 11.65-33.55Q12.05-34.5 12.9-35.1 13.75-35.7 14.8-35.75L14.8-35.75Q15.9-35.95 16.98-35.38 18.05-34.8 18.6-33.75L18.6-33.75 22.3-24.55 26.65-13.8 30.1-4.8Q30.65-3.45 30.08-2.13 29.5-0.8 28.13-0.25 26.75 0.3 25.4-0.28 24.05-0.85 23.5-2.15L23.5-2.15 20.6-8.75Q15-8.9 9.5-8.65L9.5-8.65 7.05-2.05Q6.45-0.75 5.1-0.18 3.75 0.4 2.4-0.18 1.05-0.75 0.5-2.05L0.5-2.05ZM12.4-15.8L12.4-15.8Q14.3-15.8 17.9-15.8L17.9-15.8 15.25-23 12.4-15.8ZM45.6 0.45L45.6 0.45Q41.75 0.55 38.65-0.75 35.55-2.05 33.75-4.55 31.95-7.05 31.95-10.35L31.95-10.35Q31.95-12.35 33.1-13.48 34.25-14.6 35.7-14.6L35.7-14.6Q37.15-14.6 38.05-13.58 38.95-12.55 38.95-11.3L38.95-11.3Q38.95-10.05 39.1-9.22 39.25-8.4 39.85-7.7L39.85-7.7Q41-6.3 45.7-6.3L45.7-6.3Q48.25-6.3 50.05-7.35 51.85-8.4 51.85-10.35L51.85-10.35Q51.85-11.65 49.75-12.85L49.75-12.85Q48.3-13.65 43.3-15.35L43.3-15.35Q37.85-17.15 35.1-19.53 32.35-21.9 32.35-26L32.35-26Q32.35-29.15 34.15-31.5 35.95-33.85 38.87-35.1 41.8-36.35 45.1-36.35L45.1-36.35Q48.5-36.45 51.65-35.25 54.8-34.05 56.72-31.83 58.65-29.6 58.65-26.8L58.65-26.8Q58.65-25.3 57.55-24.23 56.45-23.15 55-23.15L55-23.15Q54-23.15 53.05-23.75 52.1-24.35 51.85-25.25L51.85-25.25Q51.55-26.45 50.97-27.1 50.4-27.75 49.45-28.3L49.45-28.3Q48.2-29 47.2-29.3 46.2-29.6 44.35-29.6L44.35-29.6Q42.15-29.6 40.72-28.78 39.3-27.95 39.3-26.65L39.3-26.65Q39.3-25 40.92-23.95 42.55-22.9 45.5-21.95L45.5-21.95Q51.2-20.05 53.1-19L53.1-19Q56.25-17.25 57.55-15.3 58.85-13.35 58.85-10.4L58.85-10.4Q58.85-7.25 56.95-4.78 55.05-2.3 51.97-0.93 48.9 0.45 45.6 0.45L45.6 0.45ZM61-2.05L61-2.05Q60.4-3.4 60.95-4.7L60.95-4.7 72.15-33.55Q72.55-34.5 73.4-35.1 74.25-35.7 75.3-35.75L75.3-35.75Q76.4-35.95 77.47-35.38 78.55-34.8 79.09-33.75L79.09-33.75 82.8-24.55 87.15-13.8 90.59-4.8Q91.15-3.45 90.57-2.13 90-0.8 88.62-0.25 87.25 0.3 85.9-0.28 84.55-0.85 84-2.15L84-2.15 81.09-8.75Q75.5-8.9 70-8.65L70-8.65 67.55-2.05Q66.95-0.75 65.59-0.18 64.25 0.4 62.9-0.18 61.55-0.75 61-2.05L61-2.05ZM72.9-15.8L72.9-15.8Q74.8-15.8 78.4-15.8L78.4-15.8 75.75-23 72.9-15.8ZM96.74 0.15L96.74 0.15Q95.29 0.15 94.24-0.83 93.19-1.8 93.14-3.25L93.14-3.25Q93.14-4.55 93.97-5.58 94.79-6.6 96.04-6.8L96.04-6.8Q96.09-15.5 95.99-28.85L95.99-28.85Q94.79-29.1 93.99-30.05 93.19-31 93.19-32.3L93.19-32.3Q93.19-33.75 94.24-34.75 95.29-35.75 96.74-35.75L96.74-35.75 102.39-35.7Q103.84-35.7 104.84-34.65 105.84-33.6 105.84-32.15L105.84-32.15Q105.84-30.9 105.02-29.95 104.19-29 102.94-28.75L102.94-28.75Q103.09-15.6 103.04-6.95L103.04-6.95Q104.29-6.75 105.12-5.8 105.94-4.85 105.99-3.6L105.99-3.6Q105.99-2.15 105.02-1.1 104.04-0.05 102.59 0L102.59 0 96.74 0.15ZM127.29 0.15L127.29 0.15Q125.84 0.15 124.79-0.83 123.74-1.8 123.69-3.25L123.69-3.25Q123.69-4.55 124.51-5.58 125.34-6.6 126.59-6.8L126.59-6.8Q126.64-15.5 126.54-28.85L126.54-28.85Q125.34-29.1 124.54-30.05 123.74-31 123.74-32.3L123.74-32.3Q123.74-33.75 124.79-34.75 125.84-35.75 127.29-35.75L127.29-35.75 132.94-35.7Q134.39-35.7 135.39-34.65 136.39-33.6 136.39-32.15L136.39-32.15Q136.39-30.9 135.56-29.95 134.74-29 133.49-28.75L133.49-28.75Q133.64-15.6 133.59-6.95L133.59-6.95Q134.84-6.75 135.66-5.8 136.49-4.85 136.54-3.6L136.54-3.6Q136.54-2.15 135.56-1.1 134.59-0.05 133.14 0L133.14 0 127.29 0.15ZM168.94-0.2L168.94-0.2Q166.99 0.15 165.69-1.4L165.69-1.4Q162.34-5.35 157.24-13.1L157.24-13.1Q151.69-20.95 149.39-23.75L149.39-23.75Q149.44-21.75 149.64-14.88 149.84-8 149.84-3.45L149.84-3.45Q149.84-2 148.81-0.98 147.79 0.05 146.34 0.05 144.89 0.05 143.86-0.98 142.84-2 142.84-3.45L142.84-3.45Q142.84-7.85 142.56-17.68 142.29-27.5 142.49-32.55L142.49-32.55Q142.54-34 143.59-35 144.64-36 146.09-35.95L146.09-35.95Q146.79-35.9 147.44-35.65L147.44-35.65Q148.39-35.35 149.09-34.55L149.09-34.55Q149.94-33.5 151.84-31.23 153.74-28.95 154.69-27.8L154.69-27.8Q157.49-24.9 162.99-17.1L162.99-17.1 165.39-13.65Q165.54-25.25 165.44-32.5L165.44-32.5Q165.44-33.95 166.44-34.98 167.44-36 168.89-36.02 170.34-36.05 171.36-35.05 172.39-34.05 172.44-32.6L172.44-32.6Q172.49-25.8 172.29-3.65L172.29-3.65Q172.24-2.25 171.29-1.28 170.34-0.3 168.94-0.2L168.94-0.2ZM195.38 0.6L195.38 0.6Q191.48 0.6 188.11-0.75 184.73-2.1 182.73-4.4L182.73-4.4Q180.78-6.55 179.28-10.63 177.78-14.7 177.78-17.8L177.78-17.8Q177.78-22.55 180.26-26.8 182.73-31.05 186.88-33.65 191.03-36.25 195.73-36.25L195.73-36.25Q198.68-36.25 201.53-35.15L201.53-35.15Q203.73-34.25 205.16-33.05 206.58-31.85 208.78-29.15L208.78-29.15Q209.93-27.8 209.93-26.65L209.93-26.65Q209.93-25.3 208.86-24.28 207.78-23.25 206.43-23.25L206.43-23.25Q204.98-23.25 203.98-24.45L203.98-24.45 201.78-27.05Q200.78-28.3 199.13-28.9 197.48-29.5 195.78-29.5L195.78-29.5Q192.93-29.5 190.36-27.88 187.78-26.25 186.21-23.58 184.63-20.9 184.63-17.9L184.63-17.9Q184.63-15.45 185.63-12.98 186.63-10.5 187.93-8.9L187.93-8.9Q188.93-7.7 191.33-6.9 193.73-6.1 196.38-6.1L196.38-6.1Q198.38-6.1 199.78-6.65 201.18-7.2 201.88-8.15L201.88-8.15Q202.38-8.85 202.98-10.6L202.98-10.6 203.78-12.6Q204.78-14.6 206.73-14.6L206.73-14.6Q208.08-14.6 209.16-13.63 210.23-12.65 210.23-11.25L210.23-11.25Q210.23-10.65 209.93-9.9L209.93-9.9 209.48-8.65Q208.98-7.3 208.51-6.28 208.03-5.25 207.28-4.15L207.28-4.15Q205.43-1.6 202.23-0.5 199.03 0.6 195.38 0.6L195.38 0.6Z" opacity="1" transform="matrix(1,0,0,1,0,0)" fill="#000000" class="undefined-text-0" data-fill-palette-color="quaternary" id="text-0"></path></svg></g></svg></g><g transform="matrix(1,0,0,1,75.54432,113.89512745007833)"><svg viewBox="0 0 244.43135999999998 18.305624479157366" height="18.305624479157366" width="244.43135999999998"><g transform="matrix(1,0,0,1,0,0)"><svg width="244.43135999999998" viewBox="3.759999990463257 -38.720001220703125 546.989990234375 40.970001220703125" height="18.305624479157366" data-palette-color="#dedede"><path d="M35.3-0.15L35.3-0.15 27.88 0.98Q27.1-1.51 26.32-3.98 25.54-6.45 24.8-8.94L24.8-8.94 12.79-8.5 11.28-2 3.76-2Q4.44-10.3 5.18-18.51 5.91-26.71 6.59-34.96L6.59-34.96Q10.11-35.55 13.6-35.94 17.09-36.33 20.65-36.33L20.65-36.33Q25-36.33 29.35-36.18L29.35-36.18Q30.13-31.1 30.88-26.05 31.64-21 32.47-15.92L32.47-15.92Q33.06-11.91 33.76-8.01 34.47-4.1 35.3-0.15ZM13.72-15.33L23.1-15.58Q23.05-16.02 22.85-17.21 22.66-18.41 22.41-19.75 22.17-21.09 21.85-22.19 21.53-23.29 21.24-23.49L21.24-23.49Q21.14-23.54 20.78-23.58 20.41-23.63 20-23.68 19.58-23.73 19.19-23.73 18.8-23.73 18.65-23.73L18.65-23.73Q18.41-23.73 17.99-23.73 17.58-23.73 17.11-23.71 16.65-23.68 16.24-23.58 15.82-23.49 15.67-23.34L15.67-23.34Q15.58-23.29 15.43-22.71 15.28-22.12 15.06-21.26 14.84-20.41 14.62-19.43 14.4-18.46 14.21-17.58 14.01-16.7 13.89-16.06 13.77-15.43 13.72-15.33L13.72-15.33ZM81.78-1.37L81.78 0.83Q80.86 0.78 79.98 0.68L79.98 0.68Q79.25 0.59 78.54 0.54 77.83 0.49 77.49 0.49L77.49 0.49Q75.58 0.49 73.68 0.56 71.77 0.63 69.92 0.83L69.92 0.83Q69.97-1.22 69.99-3.2 70.02-5.18 70.02-7.23L70.02-7.23Q70.02-10.89 69.89-14.5 69.77-18.12 69.68-21.73L69.68-21.73 59.42 1.46Q57.18-4.64 54.61-10.52 52.05-16.41 49.27-22.27L49.27-22.27 50.05 1.86Q49.51 1.86 48.95 1.83 48.39 1.81 47.8 1.81L47.8 1.81Q45.94 1.81 44.16 1.95 42.38 2.1 40.57 2.25L40.57 2.25Q40.82-2.29 41.06-6.79 41.31-11.28 41.31-15.82L41.31-15.82Q41.31-21.14 41.23-26.42 41.16-31.69 41.11-37.01L41.11-37.01Q44.63-37.01 47.97-37.21 51.32-37.4 54.83-37.74L54.83-37.74Q56-33.84 57.25-30 58.49-26.17 59.91-22.36L59.91-22.36Q61.42-25.98 63.35-29.44 65.28-32.91 67.28-36.33L67.28-36.33Q70.6-36.43 73.85-36.52 77.1-36.62 80.42-36.67L80.42-36.67Q80.56-32.28 80.78-27.98 81-23.68 81.2-19.29L81.2-19.29Q81.35-15.82 81.47-12.35 81.59-8.89 81.69-5.47L81.69-5.47 81.78-1.37ZM129.24-20.85L129.24-20.85Q129.24-20.21 129.24-19.6 129.24-18.99 129.19-18.41L129.19-18.41Q129.15-17.92 129.07-16.7 129-15.48 128.88-13.89 128.75-12.3 128.58-10.55 128.41-8.79 128.19-7.3 127.97-5.81 127.73-4.74 127.49-3.66 127.24-3.42L127.24-3.42Q125.78-1.95 123.75-1.25 121.72-0.54 119.53-0.29 117.33-0.05 115.13-0.1 112.93-0.15 111.03-0.15L111.03-0.15Q110.4-0.15 108.88-0.17 107.37-0.2 105.44-0.24 103.51-0.29 101.41-0.42 99.31-0.54 97.48-0.76 95.65-0.98 94.31-1.29 92.96-1.61 92.62-2.1L92.62-2.1Q92.23-2.64 91.94-3.27 91.65-3.91 91.4-4.49L91.4-4.49Q90.77-6.1 90.23-7.93 89.69-9.77 89.33-11.69 88.96-13.62 88.74-15.53 88.52-17.43 88.52-19.14L88.52-19.14Q88.52-20.07 88.67-21.56 88.81-23.05 89.06-24.78 89.3-26.51 89.64-28.32 89.99-30.13 90.4-31.69 90.82-33.25 91.3-34.4 91.79-35.55 92.38-35.94L92.38-35.94Q92.87-36.28 94.18-36.57 95.5-36.87 97.26-37.08 99.02-37.3 101.02-37.48 103.02-37.65 104.83-37.77 106.64-37.89 108.1-37.94 109.57-37.99 110.25-37.99L110.25-37.99Q111.18-37.99 112.76-37.89 114.35-37.79 116.21-37.57 118.06-37.35 119.97-37.04 121.87-36.72 123.51-36.28 125.14-35.84 126.31-35.3 127.49-34.77 127.78-34.13L127.78-34.13Q128.02-33.59 128.24-32.59 128.46-31.59 128.61-30.32 128.75-29.05 128.88-27.64 129-26.22 129.07-24.93 129.15-23.63 129.19-22.56 129.24-21.48 129.24-20.85ZM120.5-19.24L120.5-19.24Q120.5-20.21 120.41-21.31 120.31-22.41 119.77-23.24L119.77-23.24Q119.38-23.83 117.89-24.17 116.4-24.51 114.62-24.66 112.84-24.8 111.18-24.83 109.52-24.85 108.83-24.85L108.83-24.85Q108.3-24.85 106.95-24.76 105.61-24.66 104.12-24.44 102.63-24.22 101.36-23.9 100.09-23.58 99.8-23.14L99.8-23.14Q99.51-22.8 99.34-21.85 99.16-20.9 99.04-19.8 98.92-18.7 98.87-17.7 98.82-16.7 98.82-16.26L98.82-16.26Q98.82-15.87 98.85-15.09 98.87-14.31 98.97-13.48 99.07-12.65 99.19-11.91 99.31-11.18 99.56-10.84L99.56-10.84Q99.7-10.6 100.43-10.4 101.17-10.21 102.22-10.03 103.27-9.86 104.44-9.77 105.61-9.67 106.71-9.59 107.81-9.52 108.66-9.5 109.52-9.47 109.86-9.47L109.86-9.47Q110.44-9.47 111.88-9.57 113.33-9.67 114.91-9.89 116.5-10.11 117.84-10.42 119.18-10.74 119.58-11.18L119.58-11.18Q119.87-11.52 120.06-12.62 120.26-13.72 120.36-15.01 120.45-16.31 120.48-17.5 120.5-18.7 120.5-19.24ZM173.77-15.72L173.77-15.72Q173.77-11.43 173.75-7.25 173.72-3.08 173.67 1.22L173.67 1.22Q170.65 1.07 167.67 1.07L167.67 1.07Q166.2 1.07 164.71 1.22 163.22 1.37 161.76 1.61L161.76 1.61Q159.9-2.44 158.05-6.42 156.19-10.4 154.34-14.45L154.34-14.45Q152.97-17.43 151.75-20.41 150.53-23.39 149.31-26.42L149.31-26.42Q148.87-19.82 148.41-13.31 147.94-6.79 147.65-0.2L147.65-0.2 137.1-0.49Q136.86-9.86 136.66-19.14 136.47-28.42 135.98-37.79L135.98-37.79 155.07-37.89Q156.05-35.45 156.9-32.98 157.76-30.52 158.54-27.98L158.54-27.98Q159.66-24.12 161.08-20.34 162.49-16.55 163.91-12.74L163.91-12.74Q163.86-18.85 163.69-24.9 163.52-30.96 163.42-37.11L163.42-37.11 173.28-35.94Q173.48-30.86 173.63-25.83 173.77-20.8 173.77-15.72ZM213.12 0.78L213.12 0.78Q207.22 0.68 201.04 0.49 194.86 0.29 188.95-0.39L188.95-0.39Q188.27-0.49 187.42-0.56 186.56-0.63 185.88-0.88L185.88-0.88Q184.46-1.42 183.66-2.08 182.85-2.73 182.41-3.59 181.97-4.44 181.78-5.49 181.58-6.54 181.44-7.86L181.44-7.86Q181-11.28 180.75-14.72 180.51-18.16 180.51-21.63L180.51-21.63Q180.51-22.27 180.53-23.17 180.56-24.07 180.63-25.05 180.7-26.03 180.85-26.9 181-27.78 181.24-28.37L181.24-28.37Q182.41-30.91 184.68-32.45 186.95-33.98 189.69-34.84 192.42-35.69 195.33-35.96 198.23-36.23 200.67-36.23L200.67-36.23Q205.9-36.23 211.12-35.21L211.12-35.21 211.51-24.76Q206.53-26.32 201.21-26.32L201.21-26.32Q200.23-26.32 198.62-26.22 197.01-26.12 195.33-25.85 193.64-25.59 192.18-25.07 190.71-24.56 190.13-23.68L190.13-23.68Q189.83-23.24 189.61-22.46 189.39-21.68 189.27-20.83 189.15-19.97 189.1-19.14 189.05-18.31 189.05-17.77L189.05-17.77Q189.05-16.65 189.22-15.11 189.39-13.57 189.64-11.96 189.88-10.35 190.22-8.89 190.57-7.42 190.96-6.49L190.96-6.49 199.6-6.49 199.16-15.92Q202.53-15.67 205.92-15.7 209.32-15.72 212.69-15.72L212.69-15.72Q213.03-11.57 213.08-7.47 213.12-3.37 213.12 0.78ZM267.95-28.42L267.95-28.42 267.95-25 258.53-24.51Q258.33-21.68 258.24-18.9 258.14-16.11 258.14-13.33L258.14-13.33Q258.14-9.91 257.97-6.52 257.8-3.13 257.55 0.24L257.55 0.24Q255.8 0.34 254.04 0.42 252.28 0.49 250.52 0.49L250.52 0.49Q249.89 0.49 249.28 0.46 248.67 0.44 248.08 0.44L248.08 0.44Q248.18-2.54 248.25-5.49 248.32-8.45 248.32-11.38L248.32-11.38Q248.32-14.31 248.18-17.26 248.03-20.21 247.84-23.19L247.84-23.19Q246.42-23.14 244.98-23.1 243.54-23.05 242.07-23.05L242.07-23.05Q241.24-23.05 240.44-23.05 239.63-23.05 238.8-23.1L238.8-23.1Q238.66-26.71 238.61-30.27 238.56-33.84 238.51-37.4L238.51-37.4Q245.83-37.26 253.06-36.99 260.29-36.72 267.56-36.52L267.56-36.52Q267.76-34.42 267.86-32.45 267.95-30.47 267.95-28.42ZM302.91-0.15L302.91-0.15 293.2 0.1Q293.1-3.08 293.05-6.2 293-9.33 292.9-12.5L292.9-12.5 283.72-12.06Q283.67-11.57 283.67-11.11 283.67-10.64 283.67-10.21L283.67-10.21Q283.67-7.47 283.89-4.76 284.11-2.05 284.36 0.63L284.36 0.63Q283.38 0.68 282.38 0.71 281.38 0.73 280.4 0.73L280.4 0.73Q278.5 0.73 276.57 0.66 274.64 0.59 272.74 0.59L272.74 0.59Q272.83-3.96 272.98-8.4 273.13-12.84 273.22-17.38L273.22-17.38Q273.32-21.83 273.35-26.17 273.37-30.52 273.42-34.91L273.42-34.91 281.57-34.91Q281.96-31.25 282.11-27.61 282.26-23.97 282.55-20.31L282.55-20.31Q284.89-20.36 287.19-20.36 289.48-20.36 291.88-20.41L291.88-20.41 292.37-36.23Q293.05-36.28 293.71-36.28 294.37-36.28 295.05-36.28L295.05-36.28Q297-36.28 298.88-36.18 300.76-36.08 302.67-35.74L302.67-35.74Q302.91-26.81 302.86-17.94 302.81-9.08 302.91-0.15ZM337.43-36.23L337.97-29.74Q333.18-29.49 328.47-29.22 323.76-28.96 318.97-28.56L318.97-28.56 318.88-24.71 331.47-25.44Q331.72-23.78 331.84-22.17 331.96-20.56 331.96-18.9L331.96-18.9Q331.96-18.21 331.94-17.48 331.91-16.75 331.91-16.06L331.91-16.06 320.19-13.96 320.93-7.91Q324.64-8.15 328.32-8.62 332.01-9.08 335.77-9.42L335.77-9.42Q336.11-6.98 336.45-4.52 336.8-2.05 337.43 0.29L337.43 0.29Q330.5 0.24 323.66 0.32 316.83 0.39 309.89 0.39L309.89 0.39Q310.04-5.32 310.23-10.99 310.43-16.65 310.43-22.41L310.43-22.41 310.43-23.34Q310.43-26.66 310.33-29.96 310.23-33.25 310.14-36.62L310.14-36.62Q313.99-36.57 317.83-36.6 321.66-36.62 325.57-36.62L325.57-36.62Q328.54-36.62 331.5-36.5 334.45-36.38 337.43-36.23L337.43-36.23ZM399.29-8.59L399.29-8.59Q399.29-6.25 398.17-4.81 397.05-3.37 394.99-2.49L394.99-2.49Q393.29-1.76 390.7-1.34 388.11-0.93 385.33-0.76 382.54-0.59 379.86-0.54 377.17-0.49 375.37-0.49L375.37-0.49Q372.29-0.49 369.29-0.59 366.28-0.68 363.21-0.88L363.21-0.88Q363.35-5.86 362.91-10.74L362.91-10.74Q366.58-10.64 370.21-10.57 373.85-10.5 377.51-10.4L377.51-10.4Q378.93-10.35 380.37-10.3 381.81-10.25 383.28-10.25L383.28-10.25Q383.52-10.25 384.01-10.25 384.5-10.25 385.03-10.3 385.57-10.35 386.03-10.45 386.5-10.55 386.74-10.74L386.74-10.74Q386.94-10.94 386.99-11.3 387.04-11.67 387.04-11.96L387.04-11.96Q387.04-12.5 386.89-13.26 386.74-14.01 386.45-14.5L386.45-14.5Q386.4-14.55 386.13-14.6 385.86-14.65 385.52-14.67 385.18-14.7 384.89-14.72 384.59-14.75 384.55-14.75L384.55-14.75Q381.42-14.99 378.32-15.09 375.22-15.19 372.09-15.43L372.09-15.43Q370.68-15.58 369.19-15.72 367.7-15.87 366.43-16.26L366.43-16.26Q365.21-16.6 364.35-17.8 363.5-18.99 362.99-20.53 362.48-22.07 362.26-23.63 362.04-25.2 362.04-26.27L362.04-26.27Q362.04-28.03 362.38-29.61 362.72-31.2 363.48-32.57 364.23-33.94 365.4-34.99 366.58-36.04 368.29-36.72L368.29-36.72Q371.22-37.84 374.56-38.28 377.9-38.72 380.98-38.72L380.98-38.72Q384.59-38.72 388.11-38.28 391.63-37.84 395.14-37.16L395.14-37.16Q395.09-35.74 395.07-34.35 395.04-32.96 395.04-31.54L395.04-31.54Q395.04-30.13 395.19-28.69 395.34-27.25 395.48-25.83L395.48-25.83Q390.84-25.73 386.23-25.66 381.62-25.59 376.93-25.39L376.93-25.39Q376.34-25.39 375.34-25.34 374.34-25.29 373.41-25.22 372.48-25.15 371.8-25.1 371.12-25.05 371.12-25.05L371.12-25.05Q370.87-24.51 370.82-23.95 370.78-23.39 370.78-22.8L370.78-22.8Q370.78-22.51 370.8-22.07 370.82-21.63 371.02-21.39L371.02-21.39Q371.07-21.34 371.85-21.24 372.63-21.14 373.58-21.04 374.54-20.95 375.39-20.85 376.24-20.75 376.44-20.75L376.44-20.75Q378.05-20.61 380.22-20.41 382.4-20.21 384.67-19.97 386.94-19.73 389.04-19.36 391.14-18.99 392.7-18.51L392.7-18.51Q394.12-18.02 395.31-16.97 396.51-15.92 397.39-14.53 398.27-13.13 398.78-11.6 399.29-10.06 399.29-8.59ZM432.25-28.42L432.25-28.42 432.25-25 422.82-24.51Q422.63-21.68 422.53-18.9 422.43-16.11 422.43-13.33L422.43-13.33Q422.43-9.91 422.26-6.52 422.09-3.13 421.85 0.24L421.85 0.24Q420.09 0.34 418.33 0.42 416.57 0.49 414.82 0.49L414.82 0.49Q414.18 0.49 413.57 0.46 412.96 0.44 412.37 0.44L412.37 0.44Q412.47-2.54 412.55-5.49 412.62-8.45 412.62-11.38L412.62-11.38Q412.62-14.31 412.47-17.26 412.33-20.21 412.13-23.19L412.13-23.19Q410.71-23.14 409.27-23.1 407.83-23.05 406.37-23.05L406.37-23.05Q405.54-23.05 404.73-23.05 403.93-23.05 403.1-23.1L403.1-23.1Q402.95-26.71 402.9-30.27 402.85-33.84 402.8-37.4L402.8-37.4Q410.13-37.26 417.36-36.99 424.58-36.72 431.86-36.52L431.86-36.52Q432.05-34.42 432.15-32.45 432.25-30.47 432.25-28.42ZM468.04-0.15L468.04-0.15 460.61 0.98Q459.83-1.51 459.05-3.98 458.27-6.45 457.54-8.94L457.54-8.94 445.53-8.5 444.01-2 436.49-2Q437.18-10.3 437.91-18.51 438.64-26.71 439.33-34.96L439.33-34.96Q442.84-35.55 446.33-35.94 449.82-36.33 453.39-36.33L453.39-36.33Q457.73-36.33 462.08-36.18L462.08-36.18Q462.86-31.1 463.62-26.05 464.37-21 465.2-15.92L465.2-15.92Q465.79-11.91 466.5-8.01 467.21-4.1 468.04-0.15ZM446.45-15.33L455.83-15.58Q455.78-16.02 455.59-17.21 455.39-18.41 455.15-19.75 454.9-21.09 454.58-22.19 454.27-23.29 453.97-23.49L453.97-23.49Q453.88-23.54 453.51-23.58 453.14-23.63 452.73-23.68 452.31-23.73 451.92-23.73 451.53-23.73 451.39-23.73L451.39-23.73Q451.14-23.73 450.73-23.73 450.31-23.73 449.85-23.71 449.38-23.68 448.97-23.58 448.55-23.49 448.41-23.34L448.41-23.34Q448.31-23.29 448.16-22.71 448.02-22.12 447.8-21.26 447.58-20.41 447.36-19.43 447.14-18.46 446.94-17.58 446.75-16.7 446.63-16.06 446.5-15.43 446.45-15.33L446.45-15.33ZM508.27-24.56L508.27-24.56Q508.27-20.56 505.83-18.26 503.39-15.97 499.38-15.77L499.38-15.77Q504.22-7.71 507.83 0.73L507.83 0.73 493.57 1.07Q493.18-2.88 492.4-6.2 491.62-9.52 490.2-13.18L490.2-13.18Q488.59-13.09 487-12.94 485.42-12.79 483.85-12.7L483.85-12.7 484.1-1.61Q481.32-1.46 478.53-1.46L478.53-1.46Q477.12-1.46 475.77-1.51 474.43-1.56 473.06-1.71L473.06-1.71Q473.41-6.2 473.7-10.67 473.99-15.14 474.04-19.58L474.04-19.58Q474.19-27.49 474.48-35.4L474.48-35.4Q479.07-35.64 483.63-35.94 488.2-36.23 492.79-36.23L492.79-36.23Q493.96-36.23 495.33-36.18 496.7-36.13 498.09-35.91 499.48-35.69 500.77-35.3 502.07-34.91 503.09-34.28L503.09-34.28Q505.58-32.71 506.93-30.1 508.27-27.49 508.27-24.56ZM496.94-25.34L496.94-25.34Q496.94-25.73 496.92-26.42 496.89-27.1 496.79-27.81 496.7-28.52 496.5-29.13 496.31-29.74 495.96-30.03L495.96-30.03Q495.72-30.22 495.13-30.32 494.55-30.42 493.89-30.49 493.23-30.57 492.62-30.59 492.01-30.62 491.76-30.62L491.76-30.62Q489.81-30.62 487.93-30.42 486.05-30.22 484.2-29.93L484.2-29.93 485.51-20.46Q486.59-20.21 487.76-20.12 488.93-20.02 490.06-20.02L490.06-20.02Q490.54-20.02 491.5-20.07 492.45-20.12 493.45-20.26 494.45-20.41 495.3-20.68 496.16-20.95 496.5-21.39L496.5-21.39Q496.65-21.58 496.74-22.14 496.84-22.71 496.87-23.32 496.89-23.93 496.92-24.51 496.94-25.1 496.94-25.34ZM550.75-8.59L550.75-8.59Q550.75-6.25 549.62-4.81 548.5-3.37 546.45-2.49L546.45-2.49Q544.74-1.76 542.15-1.34 539.56-0.93 536.78-0.76 534-0.59 531.31-0.54 528.63-0.49 526.82-0.49L526.82-0.49Q523.74-0.49 520.74-0.59 517.74-0.68 514.66-0.88L514.66-0.88Q514.81-5.86 514.37-10.74L514.37-10.74Q518.03-10.64 521.67-10.57 525.31-10.5 528.97-10.4L528.97-10.4Q530.38-10.35 531.83-10.3 533.27-10.25 534.73-10.25L534.73-10.25Q534.97-10.25 535.46-10.25 535.95-10.25 536.49-10.3 537.03-10.35 537.49-10.45 537.95-10.55 538.2-10.74L538.2-10.74Q538.39-10.94 538.44-11.3 538.49-11.67 538.49-11.96L538.49-11.96Q538.49-12.5 538.34-13.26 538.2-14.01 537.9-14.5L537.9-14.5Q537.86-14.55 537.59-14.6 537.32-14.65 536.98-14.67 536.63-14.7 536.34-14.72 536.05-14.75 536-14.75L536-14.75Q532.88-14.99 529.77-15.09 526.67-15.19 523.55-15.43L523.55-15.43Q522.13-15.58 520.64-15.72 519.15-15.87 517.88-16.26L517.88-16.26Q516.66-16.6 515.81-17.8 514.96-18.99 514.44-20.53 513.93-22.07 513.71-23.63 513.49-25.2 513.49-26.27L513.49-26.27Q513.49-28.03 513.83-29.61 514.17-31.2 514.93-32.57 515.69-33.94 516.86-34.99 518.03-36.04 519.74-36.72L519.74-36.72Q522.67-37.84 526.01-38.28 529.36-38.72 532.44-38.72L532.44-38.72Q536.05-38.72 539.56-38.28 543.08-37.84 546.6-37.16L546.6-37.16Q546.55-35.74 546.52-34.35 546.5-32.96 546.5-31.54L546.5-31.54Q546.5-30.13 546.64-28.69 546.79-27.25 546.94-25.83L546.94-25.83Q542.3-25.73 537.68-25.66 533.07-25.59 528.38-25.39L528.38-25.39Q527.8-25.39 526.8-25.34 525.8-25.29 524.87-25.22 523.94-25.15 523.26-25.1 522.57-25.05 522.57-25.05L522.57-25.05Q522.33-24.51 522.28-23.95 522.23-23.39 522.23-22.8L522.23-22.8Q522.23-22.51 522.26-22.07 522.28-21.63 522.47-21.39L522.47-21.39Q522.52-21.34 523.3-21.24 524.09-21.14 525.04-21.04 525.99-20.95 526.84-20.85 527.7-20.75 527.89-20.75L527.89-20.75Q529.51-20.61 531.68-20.41 533.85-20.21 536.12-19.97 538.39-19.73 540.49-19.36 542.59-18.99 544.15-18.51L544.15-18.51Q545.57-18.02 546.77-16.97 547.96-15.92 548.84-14.53 549.72-13.13 550.23-11.6 550.75-10.06 550.75-8.59Z" opacity="1" transform="matrix(1,0,0,1,0,0)" fill="#dedede" class="undefined-text-1" data-fill-palette-color="secondary" id="text-1"></path></svg></g></svg></g></svg></g></svg></g><g></g></svg></g><defs></defs></svg><rect width="395.52" height="132.2007519292357" fill="none" stroke="none" visibility="hidden"></rect></g></svg></g></svg>